<svg width="100" height="100" viewBox="0 0 100 100" fill="none" xmlns="http://www.w3.org/2000/svg">
<g clip-path="url(#clip0_2351_2)">
<rect width="100" height="100" rx="20" fill="black"/>
<path d="M-3.00001 5.77136L101 98V-2H1.75127L-3.00001 5.77136Z" fill="#202220"/>
<path d="M73.0168 71H65.7848C63.6088 71 62.6488 67.992 62.3928 64.152L62.1368 59.8C61.8808 55.576 60.1528 53.784 52.1528 53.784H37.0488V71H29.0488V28.376H52.2808C65.0808 28.376 70.8408 33.496 70.8408 40.088C70.8408 44.76 68.4728 49.176 60.1528 50.712C68.4728 51.352 70.2648 55.128 70.3288 60.12L70.3928 63.64C70.4568 66.584 70.9688 68.696 73.0168 70.808V71ZM62.7768 41.624V41.112C62.7768 38.04 60.2808 35.032 53.4328 35.032H37.0488V47.832H54.1368C60.0248 47.832 62.7768 45.016 62.7768 41.624Z" fill="white"/>
</g>
<defs>
<clipPath id="clip0_2351_2">
<rect width="100" height="100" rx="20" fill="white"/>
</clipPath>
</defs>
</svg>
